<?xml version="1.0" encoding="utf-8"?>
<!-- Generator: Adobe Illustrator 23.0.1, SVG Export Plug-In . SVG Version: 6.00 Build 0)  -->
<svg version="1.1" id="Vrstva_1" xmlns="http://www.w3.org/2000/svg" xmlns:xlink="http://www.w3.org/1999/xlink" x="0px" y="0px"
	 viewBox="0 0 576 610.72" style="enable-background:new 0 0 576 610.72;" xml:space="preserve">
<style type="text/css">
	.st0{fill:none;stroke:#000000;stroke-width:14;stroke-linecap:round;stroke-linejoin:round;stroke-miterlimit:10;}
</style>
<g>
	<path class="st0" d="M252.33,416.92c9.41-5.31,16.64-10.86,18.71-14.99c4.83-9.67,24.28-46.95,28.38-73.31
		c0,0-12.61-41.8-16.28-51.71c-3.67-9.91-13.49-27.99-13.93-39.98c-0.15-4.13,1.12-7.74,2.92-10.64c-2.06-0.92-4.85-1.9-8.23-2.93
		c-3.52,8.76-9.06,18.65-17.42,24.57c-17.6,12.47-86.53,42.53-111.47,46.93c-7.89,1.39-18.13-0.38-28.84-4.02
		c-0.78,1.39-1.23,2.19-1.23,2.19s-3.67,16.13-2.57,37.4c1.1,21.27,28.6,63.8,39.6,75.53c1.35,1.44,3,2.99,4.87,4.57"/>
	<path class="st0" d="M263.9,223.37c3.89-9.68,0-16.11,0-16.11s-19.86-24.4-71.2-22.93c-51.33,1.47-59.81,5.09-87.84,18.31
		c-28.03,13.22-39.67,19.24-48.47,18.51c-8.8-0.73-20.53-5.87-20.53-5.87s17.11,26.21,29.57,44.54
		c8.52,12.53,17.61,23.15,40.73,31.02"/>
	<path class="st0" d="M106.17,290.84c10.71,3.65,20.95,5.42,28.84,4.02c24.93-4.4,93.87-34.47,111.47-46.93
		c8.36-5.92,13.9-15.81,17.42-24.57"/>
	<path class="st0" d="M299.42,328.62L299.42,328.62c0,0,8.65-11.75,12.32-19.09c3.67-7.33,1.47-50.6,0-63.8
		c-1.47-13.2-19.91-25.03-19.91-25.03s-3.75-1.74-9.42-1.37c-2.04,0.13-6.84,1.44-10.28,6.96"/>
	<path class="st0" d="M272.13,226.29c-1.8,2.9-3.07,6.51-2.92,10.64c0.44,11.98,10.27,30.07,13.93,39.98
		c3.67,9.91,16.28,51.71,16.28,51.71c0.25-1.64,0.46-3.24,0.58-4.79"/>
	<path class="st0" d="M146.85,410.53L146.85,410.53l1.91,47.31l48.67,33.27l55.82-40.29l-0.93-33.9
		c-13.97,7.88-32.75,15.22-46.56,16.54C185.52,435.39,160.19,421.82,146.85,410.53z"/>
	<path class="st0" d="M146.85,410.53c13.35,11.28,38.67,24.86,58.93,22.93c13.81-1.31,32.58-8.65,46.56-16.54"/>
</g>
<path class="st0" d="M148.76,457.85c0,0-40.58,2.51-59.54,13.1s-32.63,23.37-39.24,38.36c-6.61,14.99-18.08,45.42-18.08,45.42
	h350.99c0,0-2.21-25.65-20.28-48.5c-14.99-18.96-35.28-34.39-46.68-39.24c-25.48-10.83-62.67-16.15-62.67-16.15"/>
<g>
	<path class="st0" d="M360.71,163.74c17.7,6.64,38.19,10.44,60.03,10.44c67.01,0,121.32-35.73,121.32-79.81
		s-54.32-79.81-121.32-79.81S299.42,50.3,299.42,94.37c0,15.51,6.74,29.99,18.38,42.24"/>
	<path class="st0" d="M317.8,136.62L300,188.3l60.71-24.55"/>
</g>
</svg>
