<svg xmlns="http://www.w3.org/2000/svg" width="81.821" height="53.222" viewBox="0 0 81.821 53.222">
  <g id="Group_62" data-name="Group 62" transform="translate(-7237 -16844)">
    <path id="Path_49" data-name="Path 49" d="M154.826,233.03" transform="translate(7106.644 16619.852)" fill="#161615"/>
    <path id="Path_48" data-name="Path 48" d="M237,235.69" transform="translate(7056.081 16618.215)" fill="#161615"/>
    <path id="Path_50" data-name="Path 50" d="M126.845,294.753H153.07V275.6H140.031Z" transform="translate(7123.861 16593.658)" fill="none"/>
    <path id="Path_47" data-name="Path 47" d="M244.977,251.042a7.929,7.929,0,0,0,5.684-1.864,6.926,6.926,0,0,0,1.955-5.264,8.561,8.561,0,0,0-2.01-5.958,7.119,7.119,0,0,0-5.483-2.266H242.7l-1,15.352Z" transform="translate(7053.191 16618.215)" fill="none"/>
    <path id="Path_51" data-name="Path 51" d="M191.066,229.949v-3.589l-2.471,3.589Z" transform="translate(7085.865 16623.957)" fill="none"/>
    <path id="Path_46" data-name="Path 46" d="M234.224,218.584a16.942,16.942,0,0,0-7.274-6.4,24.735,24.735,0,0,0-10.8-2.248H194.932v6.287l-.02.029v3.589h21.383a7.119,7.119,0,0,1,5.483,2.267,8.561,8.561,0,0,1,2.01,5.958,6.926,6.926,0,0,1-1.955,5.264,7.929,7.929,0,0,1-5.684,1.864H194.912v19.154h0l-.067,8.809h12.9V245.1h8.188q9.723,0,15.3-4.66A15.4,15.4,0,0,0,236.8,228,17.47,17.47,0,0,0,234.224,218.584Z" transform="translate(7082.02 16634.061)" fill="#f2612c" opacity="0.9"/>
    <path id="Path_52" data-name="Path 52" d="M104.92,294.753,118.1,275.6H106.161L91.212,297.129v6.433h39.865l.067-8.809Z" transform="translate(7145.787 16593.658)" fill="#b8b8b8"/>
    <path id="Path_53" data-name="Path 53" d="M195.018,325.391h0V334.2h0" transform="translate(7081.913 16563.021)"/>
    <path id="Path_54" data-name="Path 54" d="M195.039,216.227v-6.287h-.02v6.316Z" transform="translate(7081.913 16634.061)"/>
    <path id="Path_55" data-name="Path 55" d="M91.307,209.939v9.906h39.9v-9.906Z" transform="translate(7145.729 16634.061)" fill="#b8b8b8"/>
  </g>
</svg>
