<?xml version="1.0" encoding="utf-8"?>
<!-- Generator: Adobe Illustrator 23.0.1, SVG Export Plug-In . SVG Version: 6.00 Build 0)  -->
<svg version="1.1" id="Vrstva_1" xmlns="http://www.w3.org/2000/svg" xmlns:xlink="http://www.w3.org/1999/xlink" x="0px" y="0px"
	 viewBox="0 0 576 610.72" style="enable-background:new 0 0 576 610.72;" xml:space="preserve">
<style type="text/css">
	.st0{fill:none;stroke:#000000;stroke-width:14;stroke-linecap:round;stroke-linejoin:round;stroke-miterlimit:10;}
	.st1{fill:none;stroke:#000000;stroke-width:16;stroke-miterlimit:10;}
	.st2{fill:#FFFFFF;stroke:#000000;stroke-width:14;stroke-linecap:round;stroke-linejoin:round;stroke-miterlimit:10;}
	.st3{fill:#FFFFFF;stroke:#EB612E;stroke-width:14;stroke-miterlimit:10;}
</style>
<line class="st0" x1="584.17" y1="524.94" x2="753.7" y2="524.94"/>
<g>
	<rect x="22.97" y="215.42" class="st1" width="528.44" height="309.52"/>
	<g>
		<path class="st2" d="M290.43,225.6h1.47c8.89-24.69,57.41-43.57,115.95-43.57s107.07,18.88,115.95,43.57h1.47v272.81h-1.94
			c-9.98-24.12-57.86-42.4-115.48-42.4s-105.5,18.29-115.48,42.4h-1.94V225.6z"/>
	</g>
	<line class="st1" x1="523.32" y1="498.41" x2="48.98" y2="494.17"/>
	<g>
		<path class="st3" d="M48.98,221.36h1.47c8.89-24.69,57.41-43.57,115.95-43.57s107.07,18.88,115.95,43.57h1.47v272.81h-1.94
			c-9.98-24.12-57.86-42.4-115.48-42.4s-105.5,18.29-115.48,42.4h-1.94V221.36z"/>
	</g>
</g>
</svg>
