<?xml version="1.0" encoding="utf-8"?>
<!-- Generator: Adobe Illustrator 23.0.1, SVG Export Plug-In . SVG Version: 6.00 Build 0)  -->
<svg version="1.1" id="Vrstva_1" xmlns="http://www.w3.org/2000/svg" xmlns:xlink="http://www.w3.org/1999/xlink" x="0px" y="0px"
	 viewBox="0 0 576 566.81" style="enable-background:new 0 0 576 566.81;" xml:space="preserve">
<style type="text/css">
	.st0{fill:none;stroke:#000000;stroke-width:14;stroke-miterlimit:10;}
	.st1{fill:none;stroke:#EB612E;stroke-width:14;stroke-miterlimit:10;}
	.st2{stroke:#000000;stroke-miterlimit:10;}
	.st3{fill:#FFFFFF;stroke:#000000;stroke-miterlimit:10;}
</style>
<path class="st0" d="M471.84,332.79H60.27c-20.31,0-36.77-16.46-36.77-36.77V64.19c0-20.31,16.46-36.77,36.77-36.77h411.57
	c20.31,0,36.77,16.46,36.77,36.77v231.83C508.61,316.33,492.15,332.79,471.84,332.79z"/>
<line class="st0" x1="23.5" y1="262.32" x2="508.61" y2="262.32"/>
<polyline class="st1" points="186.08,85.64 124.81,140.79 186.08,201.04 "/>
<line class="st1" x1="285.13" y1="65.21" x2="205.47" y2="221.47"/>
<path class="st0" d="M404.95,458.4H127.16c-12.41,0-22.47-10.06-22.47-22.47v0c0-12.41,10.06-22.47,22.47-22.47h277.79
	c12.41,0,22.47,10.06,22.47,22.47v0C427.42,448.34,417.36,458.4,404.95,458.4z"/>
<line class="st0" x1="152.59" y1="413.47" x2="198.65" y2="332.79"/>
<line class="st0" x1="388.15" y1="413.47" x2="342.09" y2="332.79"/>
<g>
	<path class="st2" d="M328.58,499.41c0.04-3.47,1.05-6.63,3.05-9.45c3.01-4.25,6.05-8.49,9.14-12.69c0.62-0.84,0.54-1.45,0.14-2.36
		c-1.96-4.45-3.79-8.96-5.74-13.41c-0.22-0.5-0.84-1.08-1.35-1.17c-5.31-0.96-10.64-1.87-15.97-2.73
		c-7.88-1.27-13.86-8.3-13.94-16.59c-0.07-7.32-0.07-14.63,0-21.95c0.09-8.7,6.35-15.6,14.92-16.79c4.87-0.68,9.7-1.6,14.55-2.38
		c0.82-0.13,1.18-0.59,1.47-1.33c1.82-4.56,3.66-9.11,5.57-13.63c0.36-0.86,0.23-1.42-0.27-2.12c-2.96-4.11-5.87-8.26-8.84-12.37
		c-5.17-7.15-4.71-15.78,1.44-22.14c5.22-5.4,10.54-10.7,15.95-15.91c5.86-5.64,14.55-6.21,21.21-1.54
		c4.31,3.03,8.58,6.1,12.82,9.21c0.69,0.5,1.15,0.55,1.94,0.2c4.5-1.97,9.02-3.89,13.57-5.74c0.85-0.35,1.18-0.74,1.33-1.63
		c0.92-5.57,1.75-11.16,2.92-16.68c1.63-7.7,8.45-13.05,16.33-13.09c7.27-0.03,14.54-0.03,21.8-0.01c8.69,0.03,15.65,6.2,16.9,14.8
		c0.7,4.82,1.6,9.6,2.38,14.4c0.15,0.93,0.54,1.43,1.5,1.8c4.66,1.83,9.29,3.74,13.89,5.73c0.94,0.4,1.56,0.39,2.37-0.2
		c4.14-3,8.33-5.95,12.49-8.93c6.82-4.87,15.52-4.36,21.56,1.47c5.5,5.32,10.91,10.74,16.24,16.23c5.39,5.56,6.02,14.38,1.61,20.74
		c-3.06,4.4-6.2,8.74-9.34,13.09c-0.54,0.74-0.63,1.29-0.23,2.21c1.94,4.45,3.79,8.95,5.58,13.47c0.36,0.91,0.82,1.28,1.74,1.43
		c5.33,0.86,10.67,1.72,15.98,2.68c7.53,1.37,13.31,8.29,13.35,15.97c0.04,7.51,0.1,15.02,0,22.53
		c-0.11,8.19-5.74,15.43-15.15,16.74c-4.87,0.68-9.71,1.54-14.54,2.41c-0.52,0.09-1.14,0.67-1.36,1.18
		c-1.94,4.51-3.77,9.07-5.71,13.58c-0.38,0.88-0.33,1.47,0.22,2.23c2.98,4.1,5.89,8.25,8.84,12.37c5.16,7.2,4.41,16.08-1.88,22.35
		c-5.04,5.03-10.07,10.06-15.11,15.09c-5.85,5.85-14.54,6.78-21.4,2.14c-4.36-2.95-8.59-6.08-12.85-9.17
		c-0.87-0.63-1.52-0.76-2.6-0.28c-4.4,1.94-8.89,3.68-13.32,5.58c-0.55,0.24-1.18,0.89-1.29,1.45c-0.96,5.17-1.81,10.35-2.68,15.54
		c-1.37,8.14-8.07,14.01-16.38,14.11c-7.56,0.1-15.12,0.09-22.68-0.01c-8.27-0.11-14.81-6.15-16.25-14.83
		c-0.81-4.9-1.61-9.8-2.4-14.7c-0.14-0.85-0.49-1.32-1.35-1.65c-4.39-1.73-8.75-3.52-13.08-5.38c-0.87-0.37-1.4-0.22-2.09,0.28
		c-4.27,3.07-8.56,6.13-12.86,9.15c-6.92,4.86-15.6,4.19-21.65-1.75c-5.28-5.19-10.51-10.44-15.71-15.71
		C330.15,508.01,328.57,504.01,328.58,499.41z M539.93,418.48c-7.18-1.21-14.27-2.42-21.37-3.6c-3.72-0.62-6.23-2.58-7.23-6.29
		c-2.02-7.5-4.92-14.64-8.86-21.34c-1.92-3.27-1.71-6.51,0.48-9.59c3.38-4.77,6.8-9.52,10.19-14.28c0.84-1.17,1.65-2.37,2.29-3.28
		c-5.31-5.34-10.45-10.5-15.64-15.71c-0.3,0.21-0.71,0.48-1.1,0.76c-5.54,3.98-11.06,7.99-16.62,11.94
		c-2.83,2.01-5.94,2.29-8.96,0.55c-7.18-4.13-14.76-7.2-22.76-9.32c-3.13-0.83-5.1-3.13-5.68-6.28c-1.28-6.93-2.4-13.9-3.51-20.86
		c-0.16-1-0.49-1.28-1.47-1.27c-4.34,0.04-8.68,0.01-13.01,0.01c-2.56,0-5.13,0-7.69,0c-0.15,0.56-0.3,0.97-0.37,1.4
		c-1.1,6.53-2.25,13.04-3.27,19.58c-0.64,4.12-2.71,6.92-6.83,7.99c-7.44,1.95-14.4,5.02-21.03,8.89c-3.17,1.85-6.36,1.61-9.35-0.46
		c-3.21-2.22-6.34-4.53-9.52-6.8c-2.76-1.97-5.54-3.94-8.27-5.88c-0.24,0.16-0.37,0.22-0.47,0.32c-4.83,4.82-9.64,9.66-14.49,14.46
		c-0.64,0.63-0.58,1.03-0.1,1.71c4.12,5.74,8.21,11.5,12.29,17.27c2.01,2.84,2.33,5.94,0.6,8.95c-3.92,6.85-6.88,14.06-8.87,21.68
		c-0.93,3.57-3.29,5.68-6.87,6.36c-3.1,0.59-6.23,1.05-9.34,1.57c-4.07,0.69-8.14,1.38-12.15,2.06c-0.08,0.2-0.15,0.29-0.15,0.38
		c-0.01,6.96-0.04,13.91,0,20.87c0,0.33,0.53,0.89,0.89,0.96c6.32,1.13,12.64,2.31,18.99,3.23c4.51,0.65,7.84,2.47,9.05,7.16
		c1.89,7.31,4.86,14.16,8.7,20.65c1.96,3.32,1.78,6.59-0.43,9.73c-2.27,3.23-4.57,6.44-6.86,9.65c-1.91,2.68-3.84,5.36-5.64,7.88
		c5.28,5.31,10.43,10.49,15.61,15.7c0.18-0.12,0.43-0.27,0.67-0.43c5.68-4.04,11.37-8.06,17.03-12.12c3.18-2.29,6.42-2.5,9.84-0.57
		c6.6,3.72,13.56,6.54,20.88,8.52c3.52,0.95,5.49,3.4,6.1,6.91c1.18,6.8,2.33,13.61,3.42,20.43c0.17,1.08,0.56,1.32,1.58,1.32
		c6.43-0.04,12.86-0.02,19.3-0.03c0.43,0,0.86-0.05,1.39-0.08c1.21-7.16,2.42-14.25,3.59-21.34c0.62-3.72,2.57-6.21,6.28-7.25
		c2.24-0.63,4.54-1.18,6.67-2.09c4.95-2.13,9.89-4.33,14.7-6.77c3.47-1.76,6.6-1.67,9.72,0.57c3.53,2.52,7.06,5.04,10.59,7.55
		c2.37,1.68,4.74,3.36,6.81,4.83c5.35-5.3,10.53-10.43,15.75-15.61c-0.39-0.56-0.83-1.2-1.28-1.83
		c-3.75-5.28-7.53-10.55-11.26-15.85c-2.17-3.09-2.39-6.34-0.46-9.61c3.99-6.75,6.86-13.94,8.91-21.49
		c0.92-3.39,3.29-5.35,6.66-6.03c3.05-0.61,6.14-1.01,9.2-1.52c4.21-0.7,8.42-1.42,12.73-2.14
		C539.93,433.17,539.93,425.93,539.93,418.48z"/>
	<path class="st3" d="M539.93,418.48c0,7.45,0,14.69,0,22.05c-4.31,0.73-8.52,1.44-12.73,2.14c-3.07,0.51-6.16,0.91-9.2,1.52
		c-3.37,0.67-5.74,2.63-6.66,6.03c-2.05,7.55-4.92,14.74-8.91,21.49c-1.93,3.26-1.71,6.52,0.46,9.61c3.73,5.3,7.5,10.57,11.26,15.85
		c0.45,0.63,0.89,1.27,1.28,1.83c-5.23,5.18-10.4,10.31-15.75,15.61c-2.07-1.47-4.44-3.14-6.81-4.83
		c-3.53-2.51-7.07-5.03-10.59-7.55c-3.13-2.24-6.25-2.33-9.72-0.57c-4.81,2.44-9.75,4.64-14.7,6.77c-2.13,0.92-4.43,1.46-6.67,2.09
		c-3.71,1.05-5.66,3.54-6.28,7.25c-1.18,7.1-2.39,14.19-3.59,21.34c-0.53,0.03-0.96,0.08-1.39,0.08c-6.43,0-12.86-0.02-19.3,0.03
		c-1.02,0.01-1.4-0.24-1.58-1.32c-1.08-6.82-2.23-13.63-3.42-20.43c-0.61-3.52-2.58-5.96-6.1-6.91c-7.32-1.97-14.28-4.79-20.88-8.52
		c-3.42-1.93-6.66-1.71-9.84,0.57c-5.66,4.07-11.35,8.09-17.03,12.12c-0.24,0.17-0.48,0.32-0.67,0.43
		c-5.18-5.21-10.33-10.38-15.61-15.7c1.81-2.52,3.73-5.2,5.64-7.88c2.29-3.21,4.59-6.42,6.86-9.65c2.21-3.14,2.39-6.41,0.43-9.73
		c-3.83-6.49-6.8-13.35-8.7-20.65c-1.21-4.69-4.55-6.51-9.05-7.16c-6.35-0.92-12.67-2.1-18.99-3.23c-0.35-0.06-0.88-0.62-0.89-0.96
		c-0.04-6.96-0.02-13.91,0-20.87c0-0.09,0.07-0.18,0.15-0.38c4.01-0.68,8.08-1.38,12.15-2.06c3.11-0.52,6.24-0.98,9.34-1.57
		c3.58-0.68,5.94-2.78,6.87-6.36c1.98-7.63,4.95-14.84,8.87-21.68c1.72-3.01,1.4-6.11-0.6-8.95c-4.07-5.77-8.17-11.53-12.29-17.27
		c-0.49-0.68-0.54-1.08,0.1-1.71c4.85-4.8,9.66-9.64,14.49-14.46c0.1-0.1,0.24-0.16,0.47-0.32c2.74,1.95,5.51,3.91,8.27,5.88
		c3.17,2.27,6.31,4.58,9.52,6.8c2.99,2.07,6.19,2.31,9.35,0.46c6.63-3.87,13.59-6.95,21.03-8.89c4.12-1.08,6.19-3.87,6.83-7.99
		c1.02-6.54,2.17-13.06,3.27-19.58c0.07-0.43,0.22-0.84,0.37-1.4c2.57,0,5.13,0,7.69,0c4.34,0,8.68,0.04,13.01-0.01
		c0.98-0.01,1.31,0.27,1.47,1.27c1.11,6.96,2.23,13.93,3.51,20.86c0.58,3.15,2.55,5.45,5.68,6.28c8,2.12,15.58,5.19,22.76,9.32
		c3.01,1.73,6.12,1.46,8.96-0.55c5.57-3.94,11.08-7.96,16.62-11.94c0.39-0.28,0.8-0.55,1.1-0.76c5.19,5.21,10.33,10.37,15.64,15.71
		c-0.64,0.92-1.45,2.11-2.29,3.28c-3.39,4.76-6.81,9.51-10.19,14.28c-2.19,3.08-2.4,6.32-0.48,9.59c3.94,6.71,6.84,13.84,8.86,21.34
		c1,3.71,3.51,5.68,7.23,6.29C525.66,416.06,532.75,417.27,539.93,418.48z M485.58,429.61c0.05-30.41-24.49-55.08-54.64-55.4
		c-30.65-0.33-55.78,24.27-55.93,55.01c-0.16,30.51,24.67,55.53,54.95,55.58C460.64,484.85,485.54,460.15,485.58,429.61z"/>
	<path class="st2" d="M485.58,429.61c-0.04,30.54-24.94,55.24-55.62,55.19c-30.28-0.05-55.11-25.07-54.95-55.58
		c0.16-30.74,25.29-55.34,55.93-55.01C461.09,374.53,485.64,399.2,485.58,429.61z M468.84,429.52
		c0.21-20.92-17.08-38.32-38.33-38.57c-21.06-0.24-38.49,16.98-38.72,38.27c-0.23,21.14,16.9,38.52,38.21,38.78
		C451.23,468.25,468.62,451.02,468.84,429.52z"/>
	<path class="st3" d="M468.84,429.52c-0.22,21.5-17.61,38.73-38.83,38.48c-21.31-0.25-38.44-17.64-38.21-38.78
		c0.23-21.29,17.66-38.52,38.72-38.27C451.75,391.2,469.05,408.6,468.84,429.52z"/>
</g>
<g>
	<path class="st0" d="M86.05,494.15c-30.43,0-55.1,24.67-55.1,55.1h110.2C141.15,518.82,116.48,494.15,86.05,494.15z"/>
	<path class="st0" d="M141.15,549.25H30.95"/>
</g>
<line class="st0" x1="86.05" y1="494.15" x2="86.05" y2="514.23"/>
</svg>
