<?xml version="1.0" encoding="utf-8"?>
<!-- Generator: Adobe Illustrator 23.0.1, SVG Export Plug-In . SVG Version: 6.00 Build 0)  -->
<svg version="1.1" id="Vrstva_1" xmlns="http://www.w3.org/2000/svg" xmlns:xlink="http://www.w3.org/1999/xlink" x="0px" y="0px"
	 viewBox="0 0 576 610.72" style="enable-background:new 0 0 576 610.72;" xml:space="preserve">
<style type="text/css">
	.st0{fill:none;stroke:#000000;stroke-width:14;stroke-linecap:round;stroke-linejoin:round;stroke-miterlimit:10;}
	.st1{fill:none;stroke:#000000;stroke-width:20;stroke-miterlimit:10;}
</style>
<line class="st0" x1="584.17" y1="578.04" x2="753.7" y2="578.04"/>
<g>
	<line class="st1" x1="41.15" y1="358.77" x2="533.82" y2="358.77"/>
	<g>
		<path class="st1" d="M362.33,251.71c3.22-2.87,5.26-6.98,5.26-11.56l0-28.77c0-8.66-7.23-15.69-16.15-15.69H233.27
			c-8.92,0-16.15,7.02-16.15,15.69l0,28.77c0,4.58,2.03,8.69,5.26,11.56"/>
		<path class="st0" d="M362.33,251.71H89.88c-26.92,0-48.74,21.19-48.74,47.34V530.7c0,26.14,21.82,47.34,48.74,47.34h395.2
			c26.92,0,48.74-21.19,48.74-47.34V299.05c0-26.14-21.82-47.34-48.74-47.34H362.33"/>
	</g>
	<path class="st1" d="M335.95,404.6h-87.19c-7.61,0-13.79-6.17-13.79-13.79v-18.25c0-7.61,6.17-13.79,13.79-13.79h87.19
		c7.61,0,13.79,6.17,13.79,13.79v18.25C349.74,398.43,343.56,404.6,335.95,404.6z"/>
</g>
</svg>
